<svg width="186" height="228" viewBox="0 0 186 228" fill="none" xmlns="http://www.w3.org/2000/svg">
<path d="M92.6809 227.882L30.8667 165.963C11.1031 146.165 0 119.315 0 91.3167C0 63.3195 11.1031 36.4688 30.8667 16.6715L47.4809 0.0292358L109.33 61.9833C129.078 81.7838 140.168 108.629 140.162 136.619C140.155 164.608 129.052 191.448 109.295 211.239L92.6809 227.882Z" fill="url(#paint0_linear)"/>
<path d="M76.0739 61.9889L137.958 0L154.572 16.6423C164.368 26.4461 172.139 38.0878 177.442 50.902C182.744 63.7162 185.474 77.4513 185.474 91.3227C185.474 105.194 182.744 118.929 177.442 131.743C172.139 144.557 164.368 156.199 154.572 166.003L92.7225 227.957L76.0739 211.28C56.3102 191.483 45.207 164.632 45.207 136.635C45.207 108.637 56.3102 81.7861 76.0739 61.9889Z" fill="url(#paint1_linear)"/>
<defs>
<linearGradient id="paint0_linear" x1="140.22" y1="113.973" x2="-0.0228203" y2="113.973" gradientUnits="userSpaceOnUse">
<stop stop-color="#F9575E"/>
<stop offset="0.27" stop-color="#F8555B"/>
<stop offset="0.49" stop-color="#F44F51"/>
<stop offset="0.68" stop-color="#EE4540"/>
<stop offset="0.87" stop-color="#E63728"/>
<stop offset="1" stop-color="#DE2A13"/>
</linearGradient>
<linearGradient id="paint1_linear" x1="-420608" y1="352634" x2="-424371" y2="351712" gradientUnits="userSpaceOnUse">
<stop stop-color="#F9575E"/>
<stop offset="0.27" stop-color="#F8555B"/>
<stop offset="0.49" stop-color="#F44F51"/>
<stop offset="0.68" stop-color="#EE4540"/>
<stop offset="0.87" stop-color="#E63728"/>
<stop offset="1" stop-color="#DE2A13"/>
</linearGradient>
</defs>
</svg>
