<svg width="48" height="48" viewBox="0 0 48 48" fill="none" xmlns="http://www.w3.org/2000/svg">
<circle cx="24" cy="24" r="24" fill="#FF98E5"/>
<mask id="mask0" mask-type="alpha" maskUnits="userSpaceOnUse" x="0" y="0" width="48" height="48">
<circle cx="24" cy="24" r="24" fill="white"/>
</mask>
<g mask="url(#mask0)">
<circle cx="24" cy="24" r="24" fill="#FC9191"/>
<path d="M36.9035 26.7904V29.1194L33.2615 32.523L24.0298 23.3736V16.7196L30.4672 13.9634V20.4114L36.9035 26.7904Z" fill="#FCC0B3"/>
<path d="M33.2617 32.523L28.4513 36.9861L17.5803 26.212V13.9634L24.03 16.7196V23.3736L33.2617 32.523Z" fill="#F74F4F"/>
<path d="M28.4471 36.9863L25.0774 40.1322C24.486 40.6838 23.5636 40.6838 22.9722 40.1322L11.1428 29.1196V13.5222C11.1435 13.01 11.404 12.5326 11.836 12.2516C12.268 11.9706 12.8136 11.9237 13.2879 12.1268L17.5802 13.9636V26.2122L28.4471 36.9863Z" fill="#F32E21"/>
<path d="M36.9037 13.5222V26.7906L30.4673 20.4116V13.9636L34.7585 12.1268C35.2329 11.9237 35.7785 11.9706 36.2105 12.2516C36.6425 12.5326 36.903 13.01 36.9037 13.5222Z" fill="#F32E21"/>
</g>
</svg>